<mxfile host="app.diagrams.net" modified="2021-08-19T15:36:04.423Z" agent="5.0 (Macintosh; Intel Mac OS X 10_15_7) AppleWebKit/537.36 (KHTML, like Gecko) Chrome/86.0.4240.193 Safari/537.36" etag="B7C7maZyXerVe2wjpUV6" version="14.9.7" type="github">
  <diagram id="8195xKesWs3v15UzHuR4" name="Page-1">
    <mxGraphModel dx="1773" dy="536" grid="1" gridSize="10" guides="1" tooltips="1" connect="1" arrows="1" fold="1" page="1" pageScale="1" pageWidth="827" pageHeight="1169" math="0" shadow="0">
      <root>
        <mxCell id="0" />
        <mxCell id="1" parent="0" />
        <mxCell id="BgHCR4T1Y8xn6UvvV4O4-6" style="rounded=0;orthogonalLoop=1;jettySize=auto;html=1;exitX=0;exitY=1;exitDx=0;exitDy=0;entryX=0.675;entryY=0.05;entryDx=0;entryDy=0;entryPerimeter=0;fillColor=#ffe6cc;strokeColor=#d79b00;" edge="1" parent="1" source="BgHCR4T1Y8xn6UvvV4O4-1" target="BgHCR4T1Y8xn6UvvV4O4-2">
          <mxGeometry relative="1" as="geometry" />
        </mxCell>
        <mxCell id="BgHCR4T1Y8xn6UvvV4O4-7" style="edgeStyle=none;rounded=0;orthogonalLoop=1;jettySize=auto;html=1;exitX=1;exitY=1;exitDx=0;exitDy=0;entryX=0;entryY=0;entryDx=0;entryDy=0;fillColor=#ffe6cc;strokeColor=#d79b00;" edge="1" parent="1" source="BgHCR4T1Y8xn6UvvV4O4-1" target="BgHCR4T1Y8xn6UvvV4O4-3">
          <mxGeometry relative="1" as="geometry" />
        </mxCell>
        <mxCell id="BgHCR4T1Y8xn6UvvV4O4-1" value="" style="ellipse;whiteSpace=wrap;html=1;aspect=fixed;fillColor=#ffe6cc;strokeColor=#d79b00;" vertex="1" parent="1">
          <mxGeometry x="200" y="100" width="40" height="40" as="geometry" />
        </mxCell>
        <mxCell id="BgHCR4T1Y8xn6UvvV4O4-8" style="edgeStyle=none;rounded=0;orthogonalLoop=1;jettySize=auto;html=1;exitX=0;exitY=1;exitDx=0;exitDy=0;entryX=0.5;entryY=0;entryDx=0;entryDy=0;fillColor=#ffe6cc;strokeColor=#d79b00;" edge="1" parent="1" source="BgHCR4T1Y8xn6UvvV4O4-2" target="BgHCR4T1Y8xn6UvvV4O4-4">
          <mxGeometry relative="1" as="geometry" />
        </mxCell>
        <mxCell id="BgHCR4T1Y8xn6UvvV4O4-9" style="edgeStyle=none;rounded=0;orthogonalLoop=1;jettySize=auto;html=1;exitX=1;exitY=1;exitDx=0;exitDy=0;entryX=0.5;entryY=0;entryDx=0;entryDy=0;fillColor=#ffe6cc;strokeColor=#d79b00;" edge="1" parent="1" source="BgHCR4T1Y8xn6UvvV4O4-2" target="BgHCR4T1Y8xn6UvvV4O4-5">
          <mxGeometry relative="1" as="geometry" />
        </mxCell>
        <mxCell id="BgHCR4T1Y8xn6UvvV4O4-2" value="" style="ellipse;whiteSpace=wrap;html=1;aspect=fixed;fillColor=#ffe6cc;strokeColor=#d79b00;" vertex="1" parent="1">
          <mxGeometry x="150" y="170" width="40" height="40" as="geometry" />
        </mxCell>
        <mxCell id="BgHCR4T1Y8xn6UvvV4O4-3" value="" style="ellipse;whiteSpace=wrap;html=1;aspect=fixed;fillColor=#ffe6cc;strokeColor=#d79b00;" vertex="1" parent="1">
          <mxGeometry x="260" y="170" width="40" height="40" as="geometry" />
        </mxCell>
        <mxCell id="BgHCR4T1Y8xn6UvvV4O4-4" value="" style="ellipse;whiteSpace=wrap;html=1;aspect=fixed;fillColor=#ffe6cc;strokeColor=#d79b00;" vertex="1" parent="1">
          <mxGeometry x="110" y="240" width="40" height="40" as="geometry" />
        </mxCell>
        <mxCell id="BgHCR4T1Y8xn6UvvV4O4-5" value="" style="ellipse;whiteSpace=wrap;html=1;aspect=fixed;fillColor=#ffe6cc;strokeColor=#d79b00;" vertex="1" parent="1">
          <mxGeometry x="190" y="240" width="40" height="40" as="geometry" />
        </mxCell>
        <mxCell id="BgHCR4T1Y8xn6UvvV4O4-10" style="rounded=0;orthogonalLoop=1;jettySize=auto;html=1;exitX=0;exitY=1;exitDx=0;exitDy=0;entryX=0.675;entryY=0.05;entryDx=0;entryDy=0;entryPerimeter=0;fillColor=#ffe6cc;strokeColor=#d79b00;" edge="1" parent="1" source="BgHCR4T1Y8xn6UvvV4O4-12" target="BgHCR4T1Y8xn6UvvV4O4-15">
          <mxGeometry relative="1" as="geometry" />
        </mxCell>
        <mxCell id="BgHCR4T1Y8xn6UvvV4O4-11" style="edgeStyle=none;rounded=0;orthogonalLoop=1;jettySize=auto;html=1;exitX=1;exitY=1;exitDx=0;exitDy=0;entryX=0;entryY=0;entryDx=0;entryDy=0;fillColor=#ffe6cc;strokeColor=#d79b00;" edge="1" parent="1" source="BgHCR4T1Y8xn6UvvV4O4-12" target="BgHCR4T1Y8xn6UvvV4O4-16">
          <mxGeometry relative="1" as="geometry" />
        </mxCell>
        <mxCell id="BgHCR4T1Y8xn6UvvV4O4-12" value="" style="ellipse;whiteSpace=wrap;html=1;aspect=fixed;fillColor=#ffe6cc;strokeColor=#d79b00;" vertex="1" parent="1">
          <mxGeometry x="440" y="100" width="40" height="40" as="geometry" />
        </mxCell>
        <mxCell id="BgHCR4T1Y8xn6UvvV4O4-13" style="edgeStyle=none;rounded=0;orthogonalLoop=1;jettySize=auto;html=1;exitX=0;exitY=1;exitDx=0;exitDy=0;entryX=0.5;entryY=0;entryDx=0;entryDy=0;fillColor=#ffe6cc;strokeColor=#d79b00;" edge="1" parent="1" source="BgHCR4T1Y8xn6UvvV4O4-15" target="BgHCR4T1Y8xn6UvvV4O4-17">
          <mxGeometry relative="1" as="geometry" />
        </mxCell>
        <mxCell id="BgHCR4T1Y8xn6UvvV4O4-14" style="edgeStyle=none;rounded=0;orthogonalLoop=1;jettySize=auto;html=1;exitX=1;exitY=1;exitDx=0;exitDy=0;entryX=0.5;entryY=0;entryDx=0;entryDy=0;fillColor=#ffe6cc;strokeColor=#d79b00;" edge="1" parent="1" source="BgHCR4T1Y8xn6UvvV4O4-15" target="BgHCR4T1Y8xn6UvvV4O4-18">
          <mxGeometry relative="1" as="geometry" />
        </mxCell>
        <mxCell id="BgHCR4T1Y8xn6UvvV4O4-15" value="" style="ellipse;whiteSpace=wrap;html=1;aspect=fixed;fillColor=#ffe6cc;strokeColor=#d79b00;" vertex="1" parent="1">
          <mxGeometry x="390" y="170" width="40" height="40" as="geometry" />
        </mxCell>
        <mxCell id="BgHCR4T1Y8xn6UvvV4O4-21" style="edgeStyle=none;rounded=0;orthogonalLoop=1;jettySize=auto;html=1;exitX=0;exitY=1;exitDx=0;exitDy=0;entryX=0.5;entryY=0;entryDx=0;entryDy=0;fillColor=#ffe6cc;strokeColor=#d79b00;" edge="1" parent="1" source="BgHCR4T1Y8xn6UvvV4O4-16" target="BgHCR4T1Y8xn6UvvV4O4-19">
          <mxGeometry relative="1" as="geometry" />
        </mxCell>
        <mxCell id="BgHCR4T1Y8xn6UvvV4O4-22" style="edgeStyle=none;rounded=0;orthogonalLoop=1;jettySize=auto;html=1;exitX=1;exitY=1;exitDx=0;exitDy=0;entryX=0.5;entryY=0;entryDx=0;entryDy=0;fillColor=#ffe6cc;strokeColor=#d79b00;" edge="1" parent="1" source="BgHCR4T1Y8xn6UvvV4O4-16" target="BgHCR4T1Y8xn6UvvV4O4-20">
          <mxGeometry relative="1" as="geometry" />
        </mxCell>
        <mxCell id="BgHCR4T1Y8xn6UvvV4O4-16" value="" style="ellipse;whiteSpace=wrap;html=1;aspect=fixed;fillColor=#ffe6cc;strokeColor=#d79b00;" vertex="1" parent="1">
          <mxGeometry x="500" y="170" width="40" height="40" as="geometry" />
        </mxCell>
        <mxCell id="BgHCR4T1Y8xn6UvvV4O4-17" value="" style="ellipse;whiteSpace=wrap;html=1;aspect=fixed;fillColor=#ffe6cc;strokeColor=#d79b00;" vertex="1" parent="1">
          <mxGeometry x="350" y="240" width="40" height="40" as="geometry" />
        </mxCell>
        <mxCell id="BgHCR4T1Y8xn6UvvV4O4-18" value="" style="ellipse;whiteSpace=wrap;html=1;aspect=fixed;fillColor=#ffe6cc;strokeColor=#d79b00;" vertex="1" parent="1">
          <mxGeometry x="420" y="240" width="40" height="40" as="geometry" />
        </mxCell>
        <mxCell id="BgHCR4T1Y8xn6UvvV4O4-19" value="" style="ellipse;whiteSpace=wrap;html=1;aspect=fixed;fillColor=#ffe6cc;strokeColor=#d79b00;" vertex="1" parent="1">
          <mxGeometry x="470" y="240" width="40" height="40" as="geometry" />
        </mxCell>
        <mxCell id="BgHCR4T1Y8xn6UvvV4O4-20" value="" style="ellipse;whiteSpace=wrap;html=1;aspect=fixed;fillColor=#ffe6cc;strokeColor=#d79b00;" vertex="1" parent="1">
          <mxGeometry x="540" y="240" width="40" height="40" as="geometry" />
        </mxCell>
        <mxCell id="BgHCR4T1Y8xn6UvvV4O4-23" value="完全二叉树" style="text;html=1;align=center;verticalAlign=middle;resizable=0;points=[];autosize=1;strokeColor=none;" vertex="1" parent="1">
          <mxGeometry x="-20" y="180" width="80" height="20" as="geometry" />
        </mxCell>
        <mxCell id="BgHCR4T1Y8xn6UvvV4O4-24" style="rounded=0;orthogonalLoop=1;jettySize=auto;html=1;exitX=0;exitY=1;exitDx=0;exitDy=0;entryX=0.675;entryY=0.05;entryDx=0;entryDy=0;entryPerimeter=0;fillColor=#dae8fc;strokeColor=#6c8ebf;" edge="1" parent="1" source="BgHCR4T1Y8xn6UvvV4O4-26" target="BgHCR4T1Y8xn6UvvV4O4-29">
          <mxGeometry relative="1" as="geometry" />
        </mxCell>
        <mxCell id="BgHCR4T1Y8xn6UvvV4O4-26" value="" style="ellipse;whiteSpace=wrap;html=1;aspect=fixed;fillColor=#dae8fc;strokeColor=#6c8ebf;" vertex="1" parent="1">
          <mxGeometry x="205" y="320" width="40" height="40" as="geometry" />
        </mxCell>
        <mxCell id="BgHCR4T1Y8xn6UvvV4O4-27" style="edgeStyle=none;rounded=0;orthogonalLoop=1;jettySize=auto;html=1;exitX=0;exitY=1;exitDx=0;exitDy=0;entryX=0.5;entryY=0;entryDx=0;entryDy=0;fillColor=#dae8fc;strokeColor=#6c8ebf;" edge="1" parent="1" source="BgHCR4T1Y8xn6UvvV4O4-29" target="BgHCR4T1Y8xn6UvvV4O4-31">
          <mxGeometry relative="1" as="geometry" />
        </mxCell>
        <mxCell id="BgHCR4T1Y8xn6UvvV4O4-28" style="edgeStyle=none;rounded=0;orthogonalLoop=1;jettySize=auto;html=1;exitX=1;exitY=1;exitDx=0;exitDy=0;entryX=0.5;entryY=0;entryDx=0;entryDy=0;fillColor=#dae8fc;strokeColor=#6c8ebf;" edge="1" parent="1" source="BgHCR4T1Y8xn6UvvV4O4-29" target="BgHCR4T1Y8xn6UvvV4O4-32">
          <mxGeometry relative="1" as="geometry" />
        </mxCell>
        <mxCell id="BgHCR4T1Y8xn6UvvV4O4-29" value="" style="ellipse;whiteSpace=wrap;html=1;aspect=fixed;fillColor=#dae8fc;strokeColor=#6c8ebf;" vertex="1" parent="1">
          <mxGeometry x="155" y="390" width="40" height="40" as="geometry" />
        </mxCell>
        <mxCell id="BgHCR4T1Y8xn6UvvV4O4-31" value="" style="ellipse;whiteSpace=wrap;html=1;aspect=fixed;fillColor=#dae8fc;strokeColor=#6c8ebf;" vertex="1" parent="1">
          <mxGeometry x="115" y="460" width="40" height="40" as="geometry" />
        </mxCell>
        <mxCell id="BgHCR4T1Y8xn6UvvV4O4-32" value="" style="ellipse;whiteSpace=wrap;html=1;aspect=fixed;fillColor=#dae8fc;strokeColor=#6c8ebf;" vertex="1" parent="1">
          <mxGeometry x="195" y="460" width="40" height="40" as="geometry" />
        </mxCell>
        <mxCell id="BgHCR4T1Y8xn6UvvV4O4-33" style="rounded=0;orthogonalLoop=1;jettySize=auto;html=1;exitX=0;exitY=1;exitDx=0;exitDy=0;entryX=0.675;entryY=0.05;entryDx=0;entryDy=0;entryPerimeter=0;fillColor=#dae8fc;strokeColor=#6c8ebf;" edge="1" parent="1" source="BgHCR4T1Y8xn6UvvV4O4-34" target="BgHCR4T1Y8xn6UvvV4O4-37">
          <mxGeometry relative="1" as="geometry" />
        </mxCell>
        <mxCell id="BgHCR4T1Y8xn6UvvV4O4-41" style="edgeStyle=none;rounded=0;orthogonalLoop=1;jettySize=auto;html=1;exitX=1;exitY=1;exitDx=0;exitDy=0;entryX=0.5;entryY=0;entryDx=0;entryDy=0;fillColor=#dae8fc;strokeColor=#6c8ebf;" edge="1" parent="1" source="BgHCR4T1Y8xn6UvvV4O4-34" target="BgHCR4T1Y8xn6UvvV4O4-40">
          <mxGeometry relative="1" as="geometry" />
        </mxCell>
        <mxCell id="BgHCR4T1Y8xn6UvvV4O4-34" value="" style="ellipse;whiteSpace=wrap;html=1;aspect=fixed;fillColor=#dae8fc;strokeColor=#6c8ebf;" vertex="1" parent="1">
          <mxGeometry x="380" y="330" width="40" height="40" as="geometry" />
        </mxCell>
        <mxCell id="BgHCR4T1Y8xn6UvvV4O4-35" style="edgeStyle=none;rounded=0;orthogonalLoop=1;jettySize=auto;html=1;exitX=0;exitY=1;exitDx=0;exitDy=0;entryX=0.5;entryY=0;entryDx=0;entryDy=0;fillColor=#dae8fc;strokeColor=#6c8ebf;" edge="1" parent="1" source="BgHCR4T1Y8xn6UvvV4O4-37" target="BgHCR4T1Y8xn6UvvV4O4-38">
          <mxGeometry relative="1" as="geometry" />
        </mxCell>
        <mxCell id="BgHCR4T1Y8xn6UvvV4O4-37" value="" style="ellipse;whiteSpace=wrap;html=1;aspect=fixed;fillColor=#dae8fc;strokeColor=#6c8ebf;" vertex="1" parent="1">
          <mxGeometry x="330" y="400" width="40" height="40" as="geometry" />
        </mxCell>
        <mxCell id="BgHCR4T1Y8xn6UvvV4O4-38" value="" style="ellipse;whiteSpace=wrap;html=1;aspect=fixed;fillColor=#dae8fc;strokeColor=#6c8ebf;" vertex="1" parent="1">
          <mxGeometry x="290" y="470" width="40" height="40" as="geometry" />
        </mxCell>
        <mxCell id="BgHCR4T1Y8xn6UvvV4O4-39" value="" style="ellipse;whiteSpace=wrap;html=1;aspect=fixed;fillColor=#dae8fc;strokeColor=#6c8ebf;" vertex="1" parent="1">
          <mxGeometry x="380" y="470" width="40" height="40" as="geometry" />
        </mxCell>
        <mxCell id="BgHCR4T1Y8xn6UvvV4O4-42" style="edgeStyle=none;rounded=0;orthogonalLoop=1;jettySize=auto;html=1;exitX=0;exitY=1;exitDx=0;exitDy=0;entryX=0.7;entryY=0.075;entryDx=0;entryDy=0;entryPerimeter=0;fillColor=#dae8fc;strokeColor=#6c8ebf;" edge="1" parent="1" source="BgHCR4T1Y8xn6UvvV4O4-40" target="BgHCR4T1Y8xn6UvvV4O4-39">
          <mxGeometry relative="1" as="geometry" />
        </mxCell>
        <mxCell id="BgHCR4T1Y8xn6UvvV4O4-40" value="" style="ellipse;whiteSpace=wrap;html=1;aspect=fixed;fillColor=#dae8fc;strokeColor=#6c8ebf;" vertex="1" parent="1">
          <mxGeometry x="430" y="400" width="40" height="40" as="geometry" />
        </mxCell>
        <mxCell id="BgHCR4T1Y8xn6UvvV4O4-43" value="非完全二叉树" style="text;html=1;align=center;verticalAlign=middle;resizable=0;points=[];autosize=1;strokeColor=none;" vertex="1" parent="1">
          <mxGeometry x="-25" y="400" width="90" height="20" as="geometry" />
        </mxCell>
      </root>
    </mxGraphModel>
  </diagram>
</mxfile>
